<svg 
    xmlns="http://www.w3.org/2000/svg" 
    viewBox="-5 -5 40 48.5" >
    <g>
    <path d="M6.366,4.001H9.75c0.829,0,1.5-0.672,1.5-1.5s-0.671-1.5-1.5-1.5H6.366C3.407,1.001,1,3.409,1,6.369v21.263   c0,2.96,2.407,5.367,5.366,5.367H9.75c0.829,0,1.5-0.672,1.5-1.5c0-0.828-0.671-1.5-1.5-1.5H6.366C5.062,29.999,4,28.937,4,27.631   V6.369C4,5.063,5.062,4.001,6.366,4.001z"/><path d="M22.06,5.44C21.115,4.496,19.5,5.169,19.5,6.5V11L7.5,10.999c-0.398,0-0.779,0.158-1.061,0.439   C6.158,11.72,6,12.102,6,12.499v8.5c0,0.828,0.671,1.5,1.5,1.5L19.5,22.5v5c0,1.342,1.625,1.998,2.561,1.061l10.5-10.5   c0.586-0.586,0.586-1.535,0-2.121L22.06,5.44z M22.5,23.879V21c0-0.828-0.671-1.5-1.5-1.5L9,19.499v-5.5L21,14   c0.829,0,1.5-0.675,1.5-1.5v-2.379L29.379,17L22.5,23.879z"/></g>
</svg>