<svg 
    xmlns="http://www.w3.org/2000/svg" 
    xmlns:xlink="http://www.w3.org/1999/xlink" 
    viewBox="3 0 64 64" width="50" height="50" >
    <g><g>
    <path d="M64.1,18.1l-2.8-0.1c-0.4-1.4-0.9-2.8-1.7-4l1.9-2.1c0.3-0.4,0.3-1,0-1.3l-3.9-3.9c-0.4-0.4-1-0.4-1.3,0l-2.1,1.9    c-1.2-0.7-2.6-1.3-4-1.7l-0.1-2.8c0-0.5-0.4-0.9-1-0.9h-5.5c-0.5,0-0.9,0.4-1,0.9l-0.1,2.8c-1.4,0.4-2.8,0.9-4,1.7l-2.1-1.9    c-0.4-0.3-1-0.3-1.3,0l-3.9,3.9c-0.4,0.4-0.4,1,0,1.3l1.9,2.1c-0.7,1.3-1.3,2.6-1.7,4l-2.8,0.1c-0.5,0-0.9,0.5-0.9,1v5.5    c0,0.5,0.4,0.9,0.9,1l1.8,0.1c0.4,0,0.7,0,1,0c0.4,1.4,0.9,2.7,1.7,4l-1.9,2.1c-0.4,0.4-0.3,1,0,1.3c0.1,0.1,3.6,3.6,3.9,3.9    c0,0,0,0,0,0c0.4,0.4,1,0.4,1.4,0c0.1-0.1,0.1-0.1,0.2-0.2l1.9-1.7c1.3,0.8,2.6,1.3,4,1.7l0.1,2.8c0,0.5,0.5,0.9,1,0.9h5.5    c0.5,0,0.9-0.4,1-0.9l0.1-2.8c1.4-0.4,2.8-0.9,4-1.7l2.1,1.9c0.4,0.3,1,0.3,1.3,0l3.9-3.9c0.4-0.4,0.4-1,0-1.3l-1.9-2.1    c0.8-1.3,1.3-2.6,1.7-4l2.8-0.1c0.5,0,0.9-0.5,0.9-1V19C65,18.5,64.6,18.1,64.1,18.1z M47.7,28.9c-4.2,0.8-8.2-2.3-8.5-6.6    c-0.4-4,2.9-7.8,7.2-7.8c4,0,7.3,3.3,7.3,7.3C53.6,25.3,51.1,28.3,47.7,28.9z"/></g><g><path d="M43.6,52.3H16.2L9.8,17.7c-0.4-2.3-2.5-4.1-4.9-4.1H2c-0.5,0-1,0.5-1,1c0,0.6,0.5,1,1,1h3c1.4,0,2.6,1,2.9,2.4l6.3,34.5    c-2.3,0.6-3.9,2.6-3.9,5.1c0,2.9,2.4,5.3,5.3,5.3s5.3-2.4,5.3-5.3c0-1.2-0.4-2.4-1.2-3.3h19.9c-0.7,0.9-1.2,2-1.2,3.3    c0,2.9,2.4,5.3,5.3,5.3c2.9,0,5.3-2.4,5.3-5.3C48.9,54.7,46.5,52.3,43.6,52.3z"/></g><g><path d="M28.3,33v-5.5c-1.4-0.2-2.5-1.5-2.5-2.9v-2.4h-6.3L20.4,33H28.3z"/></g><g><polygon points="28.3,45.8 28.3,35 20.5,35 21.5,45.8   "/></g><g><polygon points="17,45.8 19.5,45.8 18.5,35 15,35   "/></g><g><polygon points="18.4,33 17.4,22.1 12.7,22.1 14.7,33   "/></g><g><path d="M45.7,45l0.5-2.6h-2.5c-1.6,0-2.9-1.2-3-2.8l-0.1-1.4c-0.6-0.2-1.2-0.5-1.8-0.7c-0.5,0.4-2,2.5-4.3,1.4h-1.4l0-1.2l0,0    c-1.5-1.5-2.3-2.3-2.7-2.7h-0.1v10.9h14.4C45.2,45.8,45.6,45.5,45.7,45z"/></g></g></svg>