<svg 
    xmlns="http://www.w3.org/2000/svg" 
    xmlns:xlink="http://www.w3.org/1999/xlink" 
    stroke="currentColor" 
    stroke-width="0.15"
    viewBox="-0.8 -0.5 11 11" 
    >
    <g>
    <path d="M5.412,4.517c0.017,0.012,0.036,0.02,0.056,0.023c0.042,0.009,0.086,0,0.123-0.024l3.231-2.201   c0.035-0.023,0.06-0.061,0.067-0.102c0.008-0.042-0.001-0.085-0.025-0.12C8.266,1.214,7.363,0.611,6.323,0.396   C6.236,0.379,6.152,0.435,6.134,0.521l-0.79,3.829C5.33,4.415,5.357,4.48,5.412,4.517z M6.415,0.746   c0.841,0.211,1.574,0.7,2.092,1.396l-2.77,1.886L6.415,0.746z"/><path d="M8.867,2.932C8.844,2.897,8.806,2.874,8.765,2.865C8.723,2.856,8.68,2.866,8.645,2.89l-3.231,2.2   C5.374,5.117,5.349,5.158,5.344,5.205s0.01,0.092,0.042,0.127L8.053,8.19c0.023,0.025,0.054,0.041,0.085,0.048   c0.049,0.01,0.103-0.003,0.142-0.039C8.9,7.621,9.318,6.877,9.49,6.046C9.715,4.958,9.493,3.852,8.867,2.932z"/><path d="M4.829,5.387l0.766-3.711c0.026-0.128-0.056-0.254-0.185-0.28c-0.055-0.011-0.109-0.021-0.164-0.03   C5.089,1.34,4.931,1.322,4.777,1.314C4.711,1.312,4.646,1.31,4.58,1.31C4.439,1.309,4.297,1.316,4.158,1.33   c-0.06,0.006-0.119,0.014-0.179,0.022c-0.144,0.021-0.287,0.05-0.428,0.085C3.497,1.452,3.442,1.467,3.389,1.483   C3.273,1.518,3.153,1.56,3.034,1.607C2.983,1.628,2.934,1.649,2.883,1.672c-0.11,0.049-0.221,0.104-0.326,0.164   c-0.048,0.026-0.094,0.053-0.14,0.08C2.313,1.98,2.21,2.049,2.114,2.119C2.07,2.15,2.027,2.184,1.985,2.218   C1.879,2.301,1.776,2.393,1.679,2.486C1.64,2.525,1.602,2.564,1.563,2.604C1.477,2.696,1.393,2.793,1.315,2.89   C1.28,2.936,1.245,2.98,1.212,3.027c-0.077,0.106-0.15,0.218-0.218,0.332c-0.03,0.052-0.06,0.104-0.089,0.158   C0.841,3.64,0.78,3.77,0.725,3.905h0.001c-0.024,0.062-0.049,0.124-0.07,0.188C0.595,4.266,0.547,4.439,0.512,4.608L0.509,4.619   C0.494,4.693,0.48,4.766,0.47,4.839C0.44,5.035,0.425,5.233,0.423,5.431c0,0.098,0.003,0.199,0.011,0.31   c0.021,0.313,0.077,0.621,0.167,0.916c0.089,0.295,0.214,0.584,0.37,0.857C1.057,7.663,1.153,7.811,1.26,7.951   c0.188,0.252,0.403,0.48,0.64,0.68s0.497,0.373,0.775,0.516c0.097,0.051,0.188,0.094,0.28,0.132C3.137,9.356,3.326,9.42,3.516,9.47   c0.072,0.019,0.144,0.036,0.218,0.052c0.002,0,0.012,0.002,0.015,0.003c0.168,0.034,0.347,0.058,0.527,0.07   c0.066,0.005,0.133,0.009,0.2,0.011c0.138,0.003,0.276-0.002,0.427-0.014c0.06-0.005,0.12-0.012,0.18-0.02   c0.143-0.018,0.271-0.039,0.393-0.066c0.055-0.012,0.11-0.027,0.165-0.041C5.76,9.432,5.881,9.394,6,9.35l0.025-0.01   c0.043-0.016,0.087-0.031,0.129-0.049c0.118-0.049,0.237-0.105,0.369-0.176C6.57,9.09,6.618,9.064,6.665,9.036   c0.107-0.063,0.21-0.128,0.306-0.196C7.014,8.809,7.058,8.776,7.1,8.743c0.105-0.08,0.197-0.157,0.281-0.234L7.4,8.492   C7.447,8.448,7.474,8.39,7.477,8.326c0.002-0.063-0.021-0.125-0.064-0.171L4.829,5.387z M6.905,8.49   C6.866,8.52,6.826,8.549,6.785,8.578C6.697,8.642,6.603,8.702,6.503,8.76C6.46,8.785,6.416,8.811,6.373,8.833   C6.251,8.898,6.14,8.95,6.033,8.995c-0.039,0.016-0.078,0.03-0.117,0.044L5.89,9.049C5.779,9.09,5.668,9.125,5.557,9.155   c-0.05,0.013-0.101,0.026-0.152,0.038C5.293,9.218,5.175,9.238,5.043,9.255C4.987,9.262,4.932,9.268,4.876,9.272   C4.737,9.283,4.608,9.288,4.482,9.285c-0.062-0.002-0.123-0.006-0.185-0.01C4.131,9.264,3.967,9.241,3.809,9.21   C3.806,9.209,3.8,9.208,3.798,9.207c-0.068-0.013-0.135-0.029-0.2-0.047C3.422,9.114,3.248,9.055,3.08,8.984   C2.995,8.948,2.911,8.908,2.821,8.862C2.564,8.73,2.324,8.57,2.106,8.387C1.889,8.202,1.689,7.991,1.515,7.76   C1.417,7.629,1.328,7.493,1.249,7.354c-0.145-0.253-0.26-0.52-0.343-0.792C0.824,6.291,0.772,6.007,0.753,5.719   c-0.007-0.102-0.01-0.196-0.01-0.286C0.745,5.25,0.76,5.067,0.786,4.887C0.797,4.82,0.809,4.753,0.822,4.685l0.002-0.011   c0.033-0.155,0.078-0.315,0.134-0.477C0.979,4.14,1,4.082,1.022,4.025C1.073,3.9,1.129,3.78,1.188,3.668   c0.026-0.051,0.054-0.1,0.082-0.147c0.062-0.104,0.129-0.207,0.2-0.306C1.502,3.172,1.534,3.13,1.566,3.088   c0.072-0.09,0.148-0.179,0.229-0.263c0.035-0.036,0.07-0.073,0.107-0.108c0.089-0.088,0.185-0.171,0.283-0.249   c0.038-0.031,0.078-0.062,0.118-0.091C2.393,2.312,2.486,2.249,2.583,2.19c0.042-0.026,0.085-0.051,0.13-0.075   C2.811,2.061,2.912,2.01,3.015,1.964c0.046-0.021,0.092-0.04,0.139-0.059c0.11-0.045,0.22-0.083,0.326-0.115   C3.53,1.775,3.58,1.761,3.631,1.748c0.13-0.033,0.263-0.06,0.395-0.078C4.08,1.661,4.135,1.654,4.19,1.648   c0.128-0.012,0.259-0.02,0.39-0.019c0.061,0,0.12,0.002,0.182,0.005c0.141,0.007,0.286,0.023,0.432,0.047   C5.218,1.686,5.24,1.689,5.265,1.693L4.499,5.402c-0.011,0.051,0.004,0.104,0.04,0.143l2.582,2.768   C7.055,8.371,6.984,8.43,6.905,8.49z"/></g></svg>