<svg 
    xmlns="http://www.w3.org/2000/svg" 
    viewBox="-5 -7 69 69"  
    stroke="currentColor" 
    stroke-width="2"
    >
    <path d="M3.46,33.283l.54.152v17.2a3,3,0,0,0,2.19,2.882l22.458,6.291a5,5,0,0,0,2.7,0l22.458-6.29A3,3,0,0,0,56,50.64v-17.2l.54-.152a4.735,4.735,0,0,0,2.784-7l-3.466-5.8-.009.006a.993.993,0,0,0-.576-.455L48,17.97c0-.507-.02-1-.064-1.54A2,2,0,0,0,46.684,14.8l-2.267-.913a15.005,15.005,0,0,0-1.32-3.166l.966-2.261a1.964,1.964,0,0,0-.288-2.034c-.345-.423-.7-.8-1.058-1.165-.347-.337-.726-.7-1.126-1.022a1.99,1.99,0,0,0-2.065-.3L37.277,4.9a15.005,15.005,0,0,0-3.166-1.32L33.2,1.333A2.016,2.016,0,0,0,31.541.063a18.576,18.576,0,0,0-3.111,0A2,2,0,0,0,26.8,1.316l-.914,2.267A15.005,15.005,0,0,0,22.723,4.9L20.46,3.935a1.969,1.969,0,0,0-2.032.29c-.419.342-.8.7-1.164,1.057-.336.345-.694.723-1.023,1.127a1.979,1.979,0,0,0-.3,2.064l.962,2.25a15.005,15.005,0,0,0-1.32,3.166l-2.249.906a2.017,2.017,0,0,0-1.272,1.663c-.041.508-.06,1.005-.061,1.512L4.727,20.038a.993.993,0,0,0-.576.455l-.009-.006-3.465,5.8a4.735,4.735,0,0,0,2.783,7ZM6.728,51.6A1,1,0,0,1,6,50.64V33.995l14.99,4.2a4.743,4.743,0,0,0,5.336-2.124L29,31.612V57.834ZM25.246,25.63A8.923,8.923,0,0,1,21,18c0-.164.024-.353.035-.529l8.428-2.4a1.956,1.956,0,0,1,1.073,0l8.429,2.4c.011.176.035.364.035.529a8.923,8.923,0,0,1-4.246,7.63L30,26.961ZM21.423,15.281a9,9,0,0,1,17.154,0l-7.495-2.133a3.971,3.971,0,0,0-2.165,0ZM54,50.64a1,1,0,0,1-.729.957L31,57.833V31.612l2.674,4.457a4.743,4.743,0,0,0,4.065,2.3,4.665,4.665,0,0,0,1.271-.175L54,33.995ZM57.8,29.736l-17.53,4.912a2.736,2.736,0,0,1-3.082-1.228L31.531,28.61l23-6.441,3.074,5.145A2.721,2.721,0,0,1,57.8,29.736ZM47.822,20l3.494.993L44.1,23.012c.107-.3.224-.593.312-.9l2.25-.906A2,2,0,0,0,47.822,20ZM14.064,16.658l2.73-1.1a1,1,0,0,0,.6-.687,12.956,12.956,0,0,1,1.485-3.565,1,1,0,0,0,.062-.909l-1.163-2.7c.291-.357.6-.686.9-1,.328-.32.657-.631,1.009-.918L22.4,6.939a1.009,1.009,0,0,0,.91-.062,12.941,12.941,0,0,1,3.565-1.486,1.007,1.007,0,0,0,.687-.6l1.063-2.737a14.875,14.875,0,0,1,2.721.007l1.1,2.73a1,1,0,0,0,.687.6,12.941,12.941,0,0,1,3.565,1.486,1.008,1.008,0,0,0,.91.062l2.7-1.164c.356.291.685.6.994.9.32.328.631.657.918,1.009L41.062,10.4a1,1,0,0,0,.062.909,12.956,12.956,0,0,1,1.485,3.565,1,1,0,0,0,.6.687l2.737,1.064c.038.462.057.915.057,1.378a9.7,9.7,0,0,1-.064,1.342l-2.73,1.1a1,1,0,0,0-.6.685,12.44,12.44,0,0,1-.972,2.575l-2.768.775A11.022,11.022,0,0,0,41,18a10.888,10.888,0,0,0-.087-1.34,10.994,10.994,0,0,0-21.825,0A10.813,10.813,0,0,0,19,18a11.022,11.022,0,0,0,2.13,6.477L18.362,23.7a12.44,12.44,0,0,1-.972-2.575,1,1,0,0,0-.6-.685l-2.738-1.063C13.927,19.322,14,18.125,14,18A12.885,12.885,0,0,1,14.064,16.658ZM12.176,20a1.986,1.986,0,0,0,1.14,1.2l2.268.913c.088.308.205.6.312.9l-7.212-2.02ZM2.393,27.313l3.073-5.144,23,6.441-3.858,6.432a2.734,2.734,0,0,1-3.082,1.227L4,31.357a2.735,2.735,0,0,1-1.606-4.044Z" stroke-width="1"/>
</svg>